<svg width="24" height="25" viewBox="0 0 24 25" fill="none" xmlns="http://www.w3.org/2000/svg">
<ellipse cx="12" cy="12.7333" rx="12" ry="12.275" fill="#5A67BA"/>
<path d="M13.808 11.3388C13.6687 11.0821 13.467 10.8878 13.203 10.7558C12.9463 10.6164 12.642 10.5468 12.29 10.5468C11.6813 10.5468 11.1937 10.7484 10.827 11.1518C10.4603 11.5478 10.277 12.0794 10.277 12.7468C10.277 13.4581 10.4677 14.0154 10.849 14.4188C11.2377 14.8148 11.7693 15.0128 12.444 15.0128C12.906 15.0128 13.2947 14.8954 13.61 14.6608C13.9327 14.4261 14.1673 14.0888 14.314 13.6488H11.927V12.2628H16.019V14.0118C15.8797 14.4811 15.6413 14.9174 15.304 15.3208C14.974 15.7241 14.5523 16.0504 14.039 16.2998C13.5257 16.5491 12.9463 16.6738 12.301 16.6738C11.5383 16.6738 10.8563 16.5088 10.255 16.1788C9.661 15.8414 9.19533 15.3758 8.858 14.7818C8.528 14.1878 8.363 13.5094 8.363 12.7468C8.363 11.9841 8.528 11.3058 8.858 10.7118C9.19533 10.1104 9.661 9.64477 10.255 9.31477C10.849 8.97744 11.5273 8.80877 12.29 8.80877C13.214 8.80877 13.9913 9.03244 14.622 9.47977C15.26 9.92711 15.6817 10.5468 15.887 11.3388H13.808Z" fill="white"/>
</svg>
